<svg id="Layer_1" data-name="Layer 1" xmlns="http://www.w3.org/2000/svg" width="1080" height="1080" viewBox="0 0 1080 1080"><defs><style>.cls-1{fill:#22b573;}.cls-2{fill:#c90b00;}</style></defs><title>favicon</title><path class="cls-1" d="M264.9,352.61V491.48l222.74.09V598.8l-222.75-.07,0,241.16H136.27l0-594.51H247.06v0l254.21.1V352.69Z"/><path class="cls-2" d="M792.05,241.63c49.57,0,108.67,6.65,156.14,16.08V363c-41.79-8.45-104.7-15.92-147.63-15.92-74.71,0-88,22.17-88,62.85,0,35.84,10.69,42.1,81.18,68.1C912.89,521.54,970,543.71,970,659.92,970,799.2,888.33,843,757.74,843c-58.53,0-115.46-8.87-170-21V716.31c61.62,14.39,118.83,21.3,162.87,21.3,66.19,0,94.44-15.83,94.44-70.37,0-36.52-13.19-48.34-82-73-127-45.19-175.5-62.19-175.5-174.21,0-109.87,47.19-178.4,204.44-178.4Z"/></svg>
