<svg id="Layer_1" data-name="Layer 1" xmlns="http://www.w3.org/2000/svg" width="1080" height="1080" viewBox="0 0 1080 1080"><defs><style>.cls-1,.cls-2{fill:none;stroke-linecap:round;stroke-miterlimit:10;stroke-width:100px;}.cls-1{stroke:#ffa72e;}.cls-2{stroke:#ffff2e;}</style></defs><title>spaghetti-menu</title><path class="cls-1" d="M1017,197s-348-30-480,19S70,164,70,164"/><path class="cls-1" d="M1010,507s-401-33-539,0C334.06,539.75,63,474,63,474"/><path class="cls-1" d="M1010,840s-337,66-480,19C396.24,815,63,807,63,807"/><path class="cls-2" d="M1017,231s-348-30-480,19S70,198,70,198"/><path class="cls-2" d="M1010,541s-401-33-539,0C334.06,573.75,63,508,63,508"/><path class="cls-2" d="M1010,874s-337,66-480,19C396.24,849,63,841,63,841"/></svg>
