<svg id="Layer_1" data-name="Layer 1" xmlns="http://www.w3.org/2000/svg" width="1021" height="1372" viewBox="0 0 1021 1372"><defs><style>.cls-1{fill:none;stroke-linecap:round;stroke-linejoin:round;stroke-width:20px;}.cls-1,.cls-2{stroke:#fff;}</style></defs><title>sorthvid</title><path class="cls-1" d="M135.5,1011.5s88,140,345,146S861,1046,901,994l-28.5,17.5S585.5,1204.5,135.5,1011.5Z"/><path class="cls-1" d="M881,1009s131-92,107-192c0,0-13-145-273-201l-30-8s-88-82-173-64-100,24-100,24-43,18-71,42c0,0-128,16-184,63,0,0-118,54-126,171,0,0-7.9,88.15,110.55,170.07"/><path class="cls-1" d="M423,611s7-11,17-12"/><path class="cls-1" d="M466,593s55-24,112,0"/><path class="cls-1" d="M338,610.41S297,649,296,669l-6,7.78L286,682s-39,4-85,50-49,72-49,72-16,59,28,96c0,0,39,56,164,79s241,12,241,12,183-7,261-77,19-146,19-146l-31-34-18-24s-25-28-58-32c0,0-51.76-62-76.38-73"/><path class="cls-1" d="M294,682s35-7,53,0,8,27,8,27-5,28,7,36,10,31,57,16c0,0,50-51,83-46s35,15,35,15,25,41,41,42,56-1,70-13,41-20,41-41,19-24,19-24l20,11s21-5,30-26"/><path class="cls-1" d="M227,717s55,2,67,14,32,12,32,12,27.24-18,28.12-26"/><path class="cls-1" d="M315,685s0,40-8,45"/><path class="cls-1" d="M204,914s-28-48-17-91,23-51,23-51,23-19,43-12,69,18,69,18,30,1,46-20"/><path class="cls-1" d="M197,814l19,29s8.62,78.82,117.31,133.91"/><path class="cls-1" d="M223,849l53,28s47,70,207,109"/><path class="cls-1" d="M227,769s7,27,49,53,70,23,70,23,46-8,60-38,13-49,13-49"/><path class="cls-1" d="M388,772s-28,64-55,67"/><path class="cls-1" d="M333,782s-24,35-57,36"/><path class="cls-1" d="M276,874s99,29,143-10c0,0,31-25,34-76s0-51,0-51"/><path class="cls-1" d="M370.07,946.4s51.77-17.28,55.85-89.34"/><path class="cls-1" d="M454.33,782H460s32.76-28.86,61.46-40.35c7.13-2.86,14-4.65,20.09-4.65"/><path class="cls-1" d="M411,959s47-21,61-75c0,0,23.18-51,19.59-126"/><path class="cls-1" d="M518,986s-51-1.38-52-80.19"/><path class="cls-1" d="M492,832s1,105,171,145"/><path class="cls-1" d="M522,906s-29,80.81,55.5,40.4"/><path class="cls-1" d="M522,743s-8,155,99,174,42,55,42,55"/><path class="cls-1" d="M614.26,772S595,814,610,839c0,0-4,63,20,78"/><path class="cls-1" d="M613,836s48-31,85-34,23-65,23-65l-3.09-37.55"/><path class="cls-1" d="M748.44,693S780,748,748,802c0,0-21,34-49,43,0,0-21,8-31,9s-15,14-15,14-3,27,26,23-6.26,74-6.26,74"/><path class="cls-1" d="M714.6,972S744,932,732,902c0,0-3.17-32-38.09-53"/><path class="cls-1" d="M741.87,810.68S738,917,787,946"/><path class="cls-1" d="M764,737s24-25,43-30"/><path class="cls-1" d="M834,737a154.8,154.8,0,0,0-27.43,29.08c-14.09,19.35-27.23,47-21.57,78.92,4.53,25.51,11.08,43.91,17.23,56.73C811,920.07,819,927,819,927"/><path class="cls-1" d="M809,772s30,26,30,60c0,0-1,55-30,70"/><path class="cls-1" d="M399.86,573.53C402.72,565.07,407,533,407,528c9-162-4-261-4-261,22-1,28,26,28,26,17,18,23,131,23,131,11,0,24-6,24-6a65.72,65.72,0,0,0,12-38h6c33-4,68-23,68-23,11-7,22-27,22-27,9-20,35-22,35-22l341-60s32-11,24-43-48-26-48-26L607,257s-30,12-43,3c0,0-24-26-46-24s-64,6-64,6,36,45,36,134"/><path class="cls-1" d="M411,527s30-4,33-35c0,0,6.54-56.85,9.77-71.93"/><path class="cls-1" d="M447,239s-21-11-43-4v32"/><path class="cls-1" d="M400,233s-15-24-36,3c0,0,13,51,12,140s-11,212-11,212"/><path class="cls-1" d="M364,250s-38-3-41,17,6,87,6,87,8,57,22,71,23.33,10.6,23.33,10.6"/><path class="cls-1" d="M315,267s-42,1-39,25,39,18,39,18"/><path class="cls-1" d="M322,331s-43-2-39,23,43,19,43,19"/><path class="cls-1" d="M333,386s-38,1-39,23c0,0-7,21,20,23s40,0,40,0"/><path class="cls-2" d="M282.86,42.68,278.18,76h44.44l-2.17,15.47-44.44,0-6.72,47.81H250.74l15.75-112H332l-2.18,15.47Z"/><path class="cls-2" d="M396,66.93c-8.37.09-17.64,3.18-35.06,11.82l-8.46,60.47h-17L347.4,54.41h15.21L362.42,63c15.5-7.48,25.47-10.55,35.08-10.55Z"/><path class="cls-2" d="M478,96.28c-.46,2.29-.94,4.37-1.32,6.13H419.85c-2,18.5,2.41,24,19.13,24,10.57,0,22.79-2.24,31.73-6.49l-2.14,15.19c-8.63,4-20.08,6-31,6-30.82,0-38.4-16.21-34.35-45,3.9-27.76,15.19-43.66,43.74-43.66C484.11,52.49,481.28,79.92,478,96.28ZM446.1,67.11c-13.78,0-20.59,6.56-24.22,22.7h39.83c2-10.58,3.27-22.7-15.61-22.7Z"/><path class="cls-2" d="M584.4,19.19l-16.86,120h-15.2l.14-6.72c-12.59,6.49-20.29,8.64-29.49,8.64-25.95,0-30.89-17.31-27-45.26,3.78-26.89,12.6-43.39,37.75-43.39,9.81,0,17,2.51,27.72,9l5.92-42.33ZM528.17,126.24c7,0,12.73-1.7,25.42-8.25l6.06-43.27c-10.48-6.14-15.5-7.32-21.42-7.32-16.14,0-22,8.88-25.05,30.46C510.3,118.39,513,126.24,528.17,126.24Z"/><path class="cls-2" d="M684.08,19.19l-16.86,120H652l.14-6.72c-12.59,6.49-20.29,8.64-29.49,8.64-25.95,0-30.89-17.31-27-45.26,3.78-26.89,12.6-43.39,37.74-43.39,9.82,0,17,2.51,27.72,9l5.93-42.33ZM627.85,126.24c7,0,12.73-1.7,25.42-8.25l6.06-43.27c-10.49-6.14-15.5-7.32-21.42-7.32-16.15,0-22,8.88-25,30.46C610,118.39,612.63,126.24,627.85,126.24Z"/><path class="cls-2" d="M777.32,54.41,727,154.6c-5,10-14.34,16.14-25.67,16.14h-9.49l1.94-13.8h6.41c5.91,0,10.59-3.67,13.07-9l7-14.33L696.21,54.41h18l16.91,57.2,28.12-57.2Z"/><path class="cls-2" d="M190,1211.87a157.76,157.76,0,0,1,30.13,3.2l-2.2,15.58a158.8,158.8,0,0,0-27.4-2.81c-18.28,0-22.89,6-24.37,16.6-1.16,8.35,1,9.82,17.14,16,22.52,8,33.37,12.36,30.22,34.56-3.6,25-19.6,32.72-44.38,32.72a142.69,142.69,0,0,1-32.68-4.17l2.18-15.6a135.21,135.21,0,0,0,29.93,3.79c16.42,0,24.25-4.7,26-17.89,1.23-9.32-2-11.4-17.25-17.12-23.72-8.61-33.14-11.56-30.14-33,2.79-19.79,13.15-31.86,42.8-31.86Z"/><path class="cls-2" d="M313,1284.32c-3.78,26.89-12.62,43.39-37.79,43.39-9.73,0-16.92-2.47-27.67-9l-5.41,38.68h-17L241.52,1241h15.19l-.14,6.71c12.67-6.52,20.34-8.63,29.44-8.63C312,1239.07,316.94,1256.38,313,1284.32ZM280.93,1254c-7,0-12.76,1.69-25.47,8.25l-6.05,43.26c10.34,6.07,15.37,7.34,21.52,7.33,16,0,21.9-8.89,24.94-30.47C298.75,1261.81,296.11,1254,280.93,1254Z"/><path class="cls-2" d="M413.93,1241,402,1325.79H386.79l.14-6.66c-12,6.49-19.3,8.58-27.85,8.58-24.45,0-29-17-25.06-45.23,3.75-27.14,12.25-43.41,35.82-43.41,9.3,0,16.16,2.54,26.1,9l1-7.06Zm-49.2,71.82c6.5,0,11.88-1.8,23.3-8.13l6.09-43.55c-9.5-6-14-7.13-19.52-7.16-14.67-.12-20.28,8.11-23.31,29.39C348.31,1304.13,350.59,1312.81,364.73,1312.81Z"/><path class="cls-2" d="M513.34,1241l-12.09,86.1c-3.47,24.56-18,32.66-43.3,32.67-10.84,0-21.29-1.94-29.08-5.26l1.89-13.41c7.54,3.1,18.48,4.69,27.83,4.69,16.75,0,23.69-4.88,25.78-19.74l1.12-8c-12.12,5.91-19.51,7.76-28.32,7.76-26.05,0-31-16.63-27.21-43.88,3.76-26.8,12.74-42.84,37.67-42.84,10,0,17.3,2.58,28.41,9.44l2-7.52Zm-25.83,62.6,5.91-42.35c-10.06-5.91-15.07-7.27-21.51-7.27-16,0-21.76,8.71-24.84,30.36-2.76,19.88-.24,27.11,15.41,27.11C469,1311.44,474.35,1310.12,487.51,1303.59Z"/><path class="cls-2" d="M609.73,1267.85l-8.15,58h-17l8-56.66c1.7-12.1-2.14-15.12-10-15.12s-18.35,3-29.65,8l-9,63.76h-17l16.88-120h17l-5.8,41.29c11.76-5,23.17-7.91,32.17-7.91C602.67,1239.17,612.56,1247.72,609.73,1267.85Z"/><path class="cls-2" d="M703,1282.85c-.47,2.3-.94,4.37-1.32,6.13H644.89c-2,18.5,2.42,24,19.13,24,10.57,0,22.8-2.24,31.73-6.49l-2.13,15.18c-8.64,4-20.08,6-31,6-30.82,0-38.4-16.2-34.35-45,3.9-27.75,15.18-43.65,43.74-43.65C709.16,1239.07,706.33,1266.49,703,1282.85Zm-31.85-29.17c-13.78,0-20.59,6.56-24.23,22.71h39.83c2-10.58,3.27-22.7-15.6-22.7Z"/><path class="cls-2" d="M743.89,1303.88c-1.06,7.54,2.46,9.36,7.5,9.5,2.74.08,5.52-.17,8.39-.37l-2,14.22c-3.2.32-6.39.48-8.78.48-14.54,0-24.64-5.76-22.34-22.09l7.23-51.46H720.73l1.85-13.17h13.16l2.91-20.67h17l-2.9,20.67h17.6l-1.85,13.17h-17.6Z"/><path class="cls-2" d="M807.09,1303.88c-1.06,7.54,2.46,9.36,7.5,9.5,2.74.08,5.52-.17,8.39-.37l-2,14.22c-3.2.32-6.39.48-8.79.48-14.53,0-24.63-5.76-22.33-22.09l7.23-51.46H783.93l1.85-13.17h13.16l2.9-20.67h17l-2.9,20.67h17.6l-1.85,13.17h-17.6Z"/><path class="cls-2" d="M862.66,1325.79h-17l11.94-84.8h17ZM877,1229.5H858.39l2.52-17.81h18.62Z"/></svg>
