<svg id="Layer_1" data-name="Layer 1" xmlns="http://www.w3.org/2000/svg" width="1020" height="1020" viewBox="0 0 1020 1020"><defs><style>.cls-1{fill:none;stroke:#000;stroke-linecap:round;stroke-linejoin:round;stroke-width:20px;}</style></defs><title>spaghetti_sort</title><path class="cls-1" d="M135,851s88,140,345,146S860.5,885.5,900.5,833.5L872,851S585,1044,135,851Z"/><path class="cls-1" d="M880.5,848.5s131-92,107-192c0,0-13-145-273-201l-30-8s-88-82-173-64-100,24-100,24-43,18-71,42c0,0-128,16-184,63,0,0-118,54-126,171,0,0-7.9,88.15,110.55,170.07"/><path class="cls-1" d="M422.5,450.5s7-11,17-12"/><path class="cls-1" d="M465.5,432.5s55-24,112,0"/><path class="cls-1" d="M337.5,449.91s-41,38.59-42,58.59l-6,7.78-4,5.22s-39,4-85,50-49,72-49,72-16,59,28,96c0,0,39,56,164,79s241,12,241,12,183-7,261-77,19-146,19-146l-31-34-18-24s-25-28-58-32c0,0-51.76-62-76.38-73"/><path class="cls-1" d="M293.5,521.5s35-7,53,0,8,27,8,27-5,28,7,36,10,31,57,16c0,0,50-51,83-46s35,15,35,15,25,41,41,42,56-1,70-13,41-20,41-41,19-24,19-24l20,11s21-5,30-26"/><path class="cls-1" d="M226.5,556.5s55,2,67,14,32,12,32,12,27.24-18,28.12-26"/><path class="cls-1" d="M314.5,524.5s0,40-8,45"/><path class="cls-1" d="M203.5,753.5s-28-48-17-91,23-51,23-51,23-19,43-12,69,18,69,18,30,1,46-20"/><path class="cls-1" d="M196.5,653.5l19,29s8.62,78.82,117.31,133.91"/><path class="cls-1" d="M222.5,688.5l53,28s47,70,207,109"/><path class="cls-1" d="M226.5,608.5s7,27,49,53,70,23,70,23,46-8,60-38,13-49,13-49"/><path class="cls-1" d="M387.5,611.5s-28,64-55,67"/><path class="cls-1" d="M332.5,621.5s-24,35-57,36"/><path class="cls-1" d="M275.5,713.5s99,29,143-10c0,0,31-25,34-76s0-51,0-51"/><path class="cls-1" d="M369.57,785.9s51.77-17.28,55.85-89.34"/><path class="cls-1" d="M453.83,621.5h5.67s32.76-28.86,61.46-40.35c7.13-2.86,14-4.65,20.09-4.65"/><path class="cls-1" d="M410.5,798.5s47-21,61-75c0,0,23.18-51,19.59-126"/><path class="cls-1" d="M517.5,825.5s-51-1.38-52-80.19"/><path class="cls-1" d="M491.5,671.5s1,105,171,145"/><path class="cls-1" d="M521.5,745.5s-29,80.81,55.5,40.4"/><path class="cls-1" d="M521.5,582.5s-8,155,99,174,42,55,42,55"/><path class="cls-1" d="M613.76,611.5s-19.26,42-4.26,67c0,0-4,63,20,78"/><path class="cls-1" d="M612.5,675.5s48-31,85-34,23-65,23-65L717.41,539"/><path class="cls-1" d="M747.94,532.52s31.56,55-.44,109c0,0-21,34-49,43,0,0-21,8-31,9s-15,14-15,14-3,27,26,23-6.26,74-6.26,74"/><path class="cls-1" d="M714.1,811.5s29.4-40,17.4-70c0,0-3.17-32-38.09-53"/><path class="cls-1" d="M741.37,650.18S737.5,756.5,786.5,785.5"/><path class="cls-1" d="M763.5,576.5s24-25,43-30"/><path class="cls-1" d="M833.5,576.5a154.8,154.8,0,0,0-27.43,29.08c-14.09,19.35-27.23,47-21.57,78.92,4.53,25.51,11.08,43.91,17.23,56.73,8.8,18.34,16.77,25.27,16.77,25.27"/><path class="cls-1" d="M808.5,611.5s30,26,30,60c0,0-1,55-30,70"/><path class="cls-1" d="M399.36,413c2.86-8.46,7.14-40.53,7.14-45.53,9-162-4-261-4-261,22-1,28,26,28,26,17,18,23,131,23,131,11,0,24-6,24-6a65.72,65.72,0,0,0,12-38h6c33-4,68-23,68-23,11-7,22-27,22-27,9-20,35-22,35-22l341-60s32-11,24-43-48-26-48-26l-331,78s-30,12-43,3c0,0-24-26-46-24s-64,6-64,6,36,45,36,134"/><path class="cls-1" d="M410.5,366.5s30-4,33-35c0,0,6.54-56.85,9.77-71.93"/><path class="cls-1" d="M446.5,78.5s-21-11-43-4v32"/><path class="cls-1" d="M399.5,72.5s-15-24-36,3c0,0,13,51,12,140s-11,212-11,212"/><path class="cls-1" d="M363.5,89.5s-38-3-41,17,6,87,6,87,8,57,22,71,23.33,10.6,23.33,10.6"/><path class="cls-1" d="M314.5,106.5s-42,1-39,25,39,18,39,18"/><path class="cls-1" d="M321.5,170.5s-43-2-39,23,43,19,43,19"/><path class="cls-1" d="M332.5,225.5s-38,1-39,23c0,0-7,21,20,23s40,0,40,0"/></svg>
